<svg width="215" height="60" viewBox="0 0 215 60" fill="none" xmlns="http://www.w3.org/2000/svg">
<path d="M47.356 32.4123V47.838H39.7366V33.0644C39.7366 30.5512 38.5182 28.9434 36.0794 28.9434C33.539 28.9434 32.1172 30.7021 32.1172 33.6662V47.8362H24.4978V33.0626C24.4978 30.5494 23.2793 28.9416 20.8406 28.9416C18.3002 28.9416 16.8783 30.7003 16.8783 33.6644V47.8344H9.26074V22.7135H16.8802V25.0254C18.0496 23.3171 20.2831 22.0093 23.6861 22.0093C26.6823 22.0093 28.9176 23.2147 30.3395 25.3254C31.7631 23.3153 34.0983 22.0093 37.7047 22.0093C43.5463 22.0093 47.356 26.1302 47.356 32.4123Z" fill="white"/>
<path d="M78.6473 22.7138V47.8383H71.0279V45.4761C69.3518 47.3856 66.8623 48.5407 63.4593 48.5407C56.8059 48.5407 51.3184 42.7617 51.3184 35.2743C51.3184 27.7869 56.8041 22.0078 63.4593 22.0078C66.8623 22.0078 69.35 23.1647 71.0279 25.0725V22.712H78.6473V22.7138ZM71.0279 35.2761C71.0279 31.5072 68.4875 29.1467 64.9828 29.1467C61.4782 29.1467 58.9378 31.5072 58.9378 35.2761C58.9378 39.0449 61.4782 41.4072 64.9828 41.4072C68.4875 41.4072 71.0279 39.0449 71.0279 35.2761Z" fill="white"/>
<path d="M99.4723 22.2109V30.7529C96.3235 30.2499 91.8528 31.5055 91.8528 36.4798V47.8367H84.2334V22.7139H91.8528V27.1852C92.8697 23.8205 96.2745 22.2109 99.4723 22.2109Z" fill="white"/>
<path d="M113.444 29.9499V38.8439C113.444 41.0049 115.322 41.2061 118.674 41.0049V47.8385C108.719 48.8427 105.825 45.8786 105.825 38.8439V29.9499H101.761V22.7139H105.825V17.9409L113.444 15.6792V22.7139H118.674V29.9499H113.444Z" fill="white"/>
<path d="M122.23 15.981C122.23 13.52 124.313 11.4595 126.803 11.4595C129.291 11.4595 131.372 13.52 131.372 15.981C131.372 18.4439 129.289 20.5044 126.803 20.5044C124.313 20.5026 122.23 18.4439 122.23 15.981ZM122.991 22.714H130.611V47.8385H122.991V22.714Z" fill="white"/>
<path d="M162.254 22.7138V47.8383H154.635V45.4761C152.96 47.3856 150.471 48.5407 147.068 48.5407C140.414 48.5407 134.929 42.7617 134.929 35.2743C134.929 27.7869 140.414 22.0078 147.068 22.0078C150.471 22.0078 152.96 23.1647 154.635 25.0725V22.712H162.254V22.7138ZM154.636 35.2761C154.636 31.5072 152.098 29.1467 148.593 29.1467C145.087 29.1467 142.548 31.5072 142.548 35.2761C142.548 39.0449 145.087 41.4072 148.593 41.4072C152.096 41.4072 154.636 39.0449 154.636 35.2761Z" fill="white"/>
<path d="M192.225 32.4123V47.838H184.606V33.5171C184.606 30.4021 182.625 28.9452 180.186 28.9452C177.392 28.9452 175.463 30.553 175.463 34.1207V47.838H167.844V22.7135H175.463V25.0739C176.836 23.2147 179.375 22.0093 182.727 22.0093C187.858 22.0093 192.225 25.6272 192.225 32.4123Z" fill="white"/>
<path d="M198.824 23.3839V24.1869H195.438V19.8594H198.742V20.6624H196.444V21.6019H198.474V22.3815H196.444V23.3821H198.824V23.3839Z" fill="white"/>
<path d="M203.425 21.4309C203.425 22.3956 202.694 22.9956 201.526 22.9956H200.645V24.1884H199.634V19.8608H201.528C202.694 19.8608 203.425 20.4608 203.425 21.4309ZM202.399 21.4309C202.399 20.9549 202.087 20.6764 201.468 20.6764H200.643V22.1782H201.468C202.087 22.1782 202.399 21.8998 202.399 21.4309Z" fill="white"/>
<path d="M199.23 28.3094C195.641 28.3094 192.72 25.4208 192.72 21.8693C192.72 18.3178 195.64 15.4292 199.23 15.4292C202.818 15.4292 205.74 18.3178 205.74 21.8693C205.74 25.4208 202.82 28.3094 199.23 28.3094ZM199.23 16.2735C196.112 16.2735 193.573 18.7831 193.573 21.8693C193.573 24.9555 196.11 27.4651 199.23 27.4651C202.348 27.4651 204.886 24.9555 204.886 21.8693C204.886 18.7831 202.349 16.2735 199.23 16.2735Z" fill="white"/>
</svg>
