<svg width="162" height="31" viewBox="0 0 162 31" fill="none" xmlns="http://www.w3.org/2000/svg">
<path d="M31.3622 17.4612V30.3159H25.0894V18.0046C25.0894 15.9103 24.0864 14.5704 22.0787 14.5704C19.9872 14.5704 18.8167 16.036 18.8167 18.5061V30.3145H12.544V18.0031C12.544 15.9088 11.5409 14.5689 9.53318 14.5689C7.44177 14.5689 6.27124 16.0345 6.27124 18.5046V30.313H0V9.37882H6.27274V11.3055C7.23547 9.88181 9.07424 8.79199 11.8757 8.79199C14.3424 8.79199 16.1826 9.79648 17.3532 11.5555C18.5252 9.88032 20.4477 8.79199 23.4166 8.79199C28.2258 8.79199 31.3622 12.2261 31.3622 17.4612Z" fill="white"/>
<path d="M57.1227 9.37885V30.316H50.85V28.3474C49.4702 29.9387 47.4206 30.9013 44.6191 30.9013C39.1417 30.9013 34.624 26.0854 34.624 19.8459C34.624 13.6064 39.1402 8.79053 44.6191 8.79053C47.4206 8.79053 49.4687 9.7546 50.85 11.3444V9.37735H57.1227V9.37885ZM50.85 19.8474C50.85 16.7067 48.7586 14.7396 45.8734 14.7396C42.9882 14.7396 40.8968 16.7067 40.8968 19.8474C40.8968 22.9881 42.9882 24.9567 45.8734 24.9567C48.7586 24.9567 50.85 22.9881 50.85 19.8474Z" fill="white"/>
<path d="M74.2662 8.95947V16.0777C71.674 15.6586 67.9934 16.705 67.9934 20.8502V30.3143H61.7207V9.37863H67.9934V13.1047C68.8306 10.3008 71.6336 8.95947 74.2662 8.95947Z" fill="white"/>
<path d="M85.7688 15.4086V22.8202C85.7688 24.6211 87.3145 24.7888 90.0742 24.6211V30.3158C81.879 31.1526 79.496 28.6825 79.496 22.8202V15.4086H76.1504V9.37863H79.496V5.40109L85.7688 3.51636V9.37863H90.0742V15.4086H85.7688Z" fill="white"/>
<path d="M93.0029 3.76796C93.0029 1.71707 94.7176 0 96.7672 0C98.8152 0 100.528 1.71707 100.528 3.76796C100.528 5.82036 98.8137 7.53742 96.7672 7.53742C94.7176 7.53593 93.0029 5.82036 93.0029 3.76796ZM93.6293 9.37874H99.902V30.3159H93.6293V9.37874Z" fill="white"/>
<path d="M125.953 9.37885V30.316H119.68V28.3474C118.302 29.9387 116.252 30.9013 113.451 30.9013C107.973 30.9013 103.457 26.0854 103.457 19.8459C103.457 13.6064 107.973 8.79053 113.451 8.79053C116.252 8.79053 118.302 9.7546 119.68 11.3444V9.37735H125.953V9.37885ZM119.682 19.8474C119.682 16.7067 117.592 14.7396 114.706 14.7396C111.82 14.7396 109.73 16.7067 109.73 19.8474C109.73 22.9881 111.82 24.9567 114.706 24.9567C117.59 24.9567 119.682 22.9881 119.682 19.8474Z" fill="white"/>
<path d="M150.627 17.4612V30.3159H144.354V18.3818C144.354 15.786 142.723 14.5719 140.716 14.5719C138.415 14.5719 136.827 15.9118 136.827 18.8848V30.3159H130.555V9.37882H136.827V11.3459C137.958 9.79648 140.047 8.79199 142.807 8.79199C147.032 8.79199 150.627 11.807 150.627 17.4612Z" fill="white"/>
<path d="M156.06 9.93712V10.6063H153.271V7H155.992V7.66916H154.1V8.45209H155.771V9.10179H154.1V9.93563H156.06V9.93712Z" fill="white"/>
<path d="M159.847 8.30985C159.847 9.11374 159.245 9.61374 158.283 9.61374H157.558V10.6078H156.726V7.00146H158.285C159.245 7.00146 159.847 7.50147 159.847 8.30985ZM159.002 8.30985C159.002 7.91314 158.745 7.68111 158.235 7.68111H157.557V8.9326H158.235C158.745 8.9326 159.002 8.70057 159.002 8.30985Z" fill="white"/>
<path d="M156.393 14.0419C153.439 14.0419 151.033 11.6347 151.033 8.67512C151.033 5.71554 153.437 3.30835 156.393 3.30835C159.347 3.30835 161.752 5.71554 161.752 8.67512C161.752 11.6347 159.348 14.0419 156.393 14.0419ZM156.393 4.01194C153.826 4.01194 151.736 6.10326 151.736 8.67512C151.736 11.247 153.824 13.3383 156.393 13.3383C158.959 13.3383 161.049 11.247 161.049 8.67512C161.049 6.10326 158.961 4.01194 156.393 4.01194Z" fill="white"/>
</svg>
